# xmcd
#
# Track frame offsets:
#	150
#	4075
#	20737
#	35422
#	42364
#	56921
#	73169
#	75011
#	86671
#	103624
#	106859
#	124046
#	124650
#	136555
#	150862
#	155073
#	167814
#	187167
#	189920
#	206409
#
# Disc length: 2798 seconds
#
# Revision: 1
# Processed by: cddbd v1.5.2PL0 Copyright (c) Steve Scherf et al.
# Submitted via: audiograbber 1.83.01
#
DISCID=fe0aec14
DTITLE=Jerrod Niemann - Judge Jerrod and the Hung Jury
DYEAR=2010
DGENRE=Country
TTITLE0=Intro
TTITLE1=They Should've Named You Cocaine
TTITLE2=Lover, Lover
TTITLE3=Phone Call At 3AM
TTITLE4=Down In Mexico
TTITLE5=What Do You Want
TTITLE6=A Friendly Request
TTITLE7=The Buckin' Song
TTITLE8=Old School New Again
TTITLE9=Intermission
TTITLE10=Come Back To Me
TTITLE11=Drunken Complaint
TTITLE12=How Can I Be So Thirsty
TTITLE13=Bakersfield
TTITLE14=A Concerned Fan
TTITLE15=One More Drinkin' Song
TTITLE16=I Hope You Get What You Deserve
TTITLE17=Deep Thoughts
TTITLE18=For Everclear
TTITLE19=Outro
EXTD=
EXTT0=
EXTT1=
EXTT2=
EXTT3=
EXTT4=
EXTT5=
EXTT6=
EXTT7=
EXTT8=
EXTT9=
EXTT10=
EXTT11=
EXTT12=
EXTT13=
EXTT14=
EXTT15=
EXTT16=
EXTT17=
EXTT18=
EXTT19=
PLAYORDER=
